<svg width="683" height="403" viewBox="0 0 683 403" fill="none" xmlns="http://www.w3.org/2000/svg">
<path d="M683 242.006V41.2804C683 18.4819 666.745 0 646.694 0H167.46C147.409 0 131.154 18.4819 131.154 41.2804V89.2689C131.154 112.067 114.9 130.549 94.8485 130.549H36.3057C16.2546 130.549 0 149.031 0 171.83V361.72C0 384.518 16.2546 403 36.3057 403H502.833C522.884 403 539.139 384.518 539.139 361.72V324.567C539.139 301.769 555.393 283.287 575.445 283.287H646.694C666.745 283.287 683 264.805 683 242.006Z" fill="#D9D9D9"/>
</svg>
