<svg width="40" height="40" viewBox="0 0 40 40" fill="none" xmlns="http://www.w3.org/2000/svg">
<g clip-path="url(#clip0_3012_291)">
<path d="M34 0H6C2.68629 0 0 2.68629 0 6V34C0 37.3137 2.68629 40 6 40H34C37.3137 40 40 37.3137 40 34V6C40 2.68629 37.3137 0 34 0Z" fill="#9747FF"/>
<path d="M34.865 28.9087L34.7157 28.4588C34.3621 27.4076 33.2029 26.3113 32.1379 26.0225L28.1966 24.9458C27.1278 24.655 25.6031 25.046 24.8211 25.828L23.3946 27.2544C18.2106 25.8536 14.1455 21.7884 12.7466 16.6054L14.1731 15.1789C14.9551 14.3969 15.3461 12.8742 15.0553 11.8054L13.9805 7.86209C13.6898 6.7952 12.5914 5.63602 11.5423 5.28626L11.0924 5.13499C10.0412 4.78523 8.54207 5.13895 7.76013 5.9209L5.62636 8.05662C5.24516 8.4358 5.00153 9.52035 5.00153 9.52431C4.9269 16.2988 7.58327 22.8257 12.3753 27.6178C17.1555 32.3981 23.658 35.0506 30.4128 34.9936C30.4482 34.9936 31.5642 34.7539 31.9454 34.3746L34.0791 32.2408C34.8611 31.459 35.2147 29.9599 34.865 28.9087Z" fill="white"/>
</g>
<defs>
<clipPath id="clip0_3012_291">
<rect width="40" height="40" fill="white"/>
</clipPath>
</defs>
</svg>
