<svg width="683" height="403" viewBox="0 0 683 403" fill="none" xmlns="http://www.w3.org/2000/svg">
<path d="M0 242.006V41.2804C0 18.4819 16.2546 0 36.3056 0H515.54C535.591 0 551.846 18.4819 551.846 41.2804V89.2689C551.846 112.067 568.1 130.549 588.151 130.549H646.694C666.745 130.549 683 149.031 683 171.83V361.72C683 384.518 666.745 403 646.694 403H180.167C160.116 403 143.861 384.518 143.861 361.72V324.567C143.861 301.769 127.607 283.287 107.555 283.287H36.3056C16.2546 283.287 0 264.805 0 242.006Z" fill="#D9D9D9"/>
</svg>
